<svg width="30" height="30" viewBox="0 0 30 30" fill="none" xmlns="http://www.w3.org/2000/svg">
<path fill-rule="evenodd" clip-rule="evenodd" d="M4 13C4 12.4477 4.44772 12 5 12H23C23.5523 12 24 12.4477 24 13V13.8C24 14.3523 23.5523 14.8 23 14.8H5C4.44772 14.8 4 14.3523 4 13.8V13ZM4 18.6C4 18.0477 4.44772 17.6 5 17.6H15.5C16.0523 17.6 16.5 18.0477 16.5 18.6V19.4C16.5 19.9523 16.0523 20.4 15.5 20.4H5C4.44772 20.4 4 19.9523 4 19.4V18.6ZM11.5 24.2C11.5 23.6477 11.0523 23.2 10.5 23.2H5C4.44772 23.2 4 23.6477 4 24.2V25C4 25.5522 4.44772 26 5 26H10.5C11.0523 26 11.5 25.5522 11.5 25V24.2Z" fill="#B9C1D9" fill-opacity="0.54"/>
</svg>
