<svg width="24" height="24" viewBox="0 0 24 24" fill="none" xmlns="http://www.w3.org/2000/svg">
<g id="icon/social/share_24px">
<path id="icon/social/share_24px_2" fill-rule="evenodd" clip-rule="evenodd" d="M18.04 18.89C18.56 18.42 19.24 18.12 20 18.12C21.61 18.12 22.92 19.43 22.92 21.04C22.92 22.65 21.61 23.96 20 23.96C18.39 23.96 17.08 22.65 17.08 21.04C17.08 20.82 17.11 20.6 17.16 20.39L10.04 16.23C9.5 16.73 8.79 17.04 8 17.04C6.34 17.04 5 15.7 5 14.04C5 12.38 6.34 11.04 8 11.04C8.79 11.04 9.5 11.35 10.04 11.85L17.09 7.73998C17.04 7.50998 17 7.27998 17 7.03998C17 5.37998 18.34 4.03998 20 4.03998C21.66 4.03998 23 5.37998 23 7.03998C23 8.69998 21.66 10.04 20 10.04C19.21 10.04 18.5 9.72998 17.96 9.22998L10.91 13.34C10.96 13.57 11 13.8 11 14.04C11 14.28 10.96 14.51 10.91 14.74L18.04 18.89ZM21 7.03998C21 6.48998 20.55 6.03998 20 6.03998C19.45 6.03998 19 6.48998 19 7.03998C19 7.58998 19.45 8.03998 20 8.03998C20.55 8.03998 21 7.58998 21 7.03998ZM8 15.04C7.45 15.04 7 14.59 7 14.04C7 13.49 7.45 13.04 8 13.04C8.55 13.04 9 13.49 9 14.04C9 14.59 8.55 15.04 8 15.04ZM19 21.06C19 21.61 19.45 22.06 20 22.06C20.55 22.06 21 21.61 21 21.06C21 20.51 20.55 20.06 20 20.06C19.45 20.06 19 20.51 19 21.06Z" fill="white"/>
</g>
</svg>
